<svg width="18" height="19" viewBox="0 0 18 19" fill="none" xmlns="http://www.w3.org/2000/svg">
<path fill-rule="evenodd" clip-rule="evenodd" d="M14.5542 12.628C15.0683 12.6273 15.5662 12.4482 15.963 12.1215C16.3598 11.7947 16.631 11.3404 16.7303 10.836L17.8453 5.263C17.9098 4.94002 17.902 4.60671 17.8224 4.28711C17.7428 3.96751 17.5933 3.66955 17.3848 3.41461C17.1762 3.15968 16.9138 2.95412 16.6163 2.81274C16.3188 2.67137 15.9936 2.59769 15.6643 2.59698H4.56426V1.48199C4.564 1.18714 4.44697 0.90439 4.23876 0.695618C4.03055 0.486845 3.74812 0.369039 3.45327 0.367981H1.23827C0.948466 0.376663 0.673439 0.497871 0.471516 0.705933C0.269594 0.913994 0.156667 1.19255 0.156667 1.48248C0.156667 1.77242 0.269594 2.05097 0.471516 2.25903C0.673439 2.4671 0.948466 2.5883 1.23827 2.59698H2.35326V13.742C1.91199 13.74 1.48004 13.8691 1.11217 14.1128C0.744302 14.3565 0.457066 14.7039 0.286824 15.111C0.116582 15.5181 0.0709994 15.9666 0.155873 16.3997C0.240747 16.8327 0.45224 17.2308 0.76357 17.5436C1.0749 17.8563 1.47206 18.0696 1.90471 18.1564C2.33737 18.2432 2.78605 18.1997 3.19393 18.0312C3.60181 17.8628 3.95054 17.5772 4.19591 17.2104C4.44128 16.8436 4.57225 16.4123 4.57226 15.971H12.3383C12.3401 16.4097 12.4717 16.838 12.7168 17.2019C12.9618 17.5658 13.3091 17.8489 13.7149 18.0156C14.1207 18.1822 14.5668 18.2249 14.9968 18.1382C15.4269 18.0516 15.8216 17.8394 16.1312 17.5286C16.4408 17.2177 16.6513 16.8222 16.7363 16.3918C16.8212 15.9614 16.7767 15.5155 16.6084 15.1104C16.4401 14.7052 16.1556 14.359 15.7907 14.1155C15.4258 13.8719 14.997 13.742 14.5583 13.742H4.57128V12.628H14.5542ZM15.6693 4.828L14.5542 10.401H4.56725V4.828H15.6673H15.6693Z" fill="#33A0FF"/>
</svg>
