<svg width="19" height="17" viewBox="0 0 19 17" fill="none" xmlns="http://www.w3.org/2000/svg">
<path fill-rule="evenodd" clip-rule="evenodd" d="M12.9366 2.71101C13.5805 2.71167 14.2104 2.89815 14.7508 3.24812C15.2913 3.59808 15.7192 4.09662 15.9831 4.68385C16.2471 5.27107 16.336 5.92205 16.2391 6.55854C16.1421 7.19504 15.8635 7.78998 15.4366 8.27198C14.8236 8.96298 9.59667 13.856 9.59667 13.856C9.59667 13.856 4.35866 8.96299 3.74566 8.26099C3.20446 7.65353 2.90674 6.86759 2.90966 6.05402C2.92482 5.17729 3.28373 4.34153 3.90911 3.72688C4.53449 3.11222 5.37629 2.76783 6.25316 2.76783C7.13003 2.76783 7.97178 3.11222 8.59716 3.72688C9.22254 4.34153 9.58151 5.17729 9.59667 6.05402C9.59667 5.61488 9.68313 5.18001 9.85119 4.7743C10.0192 4.36859 10.2656 3.99998 10.5761 3.68946C10.8866 3.37894 11.2552 3.1326 11.6609 2.96455C12.0667 2.7965 12.5015 2.71003 12.9407 2.71003L12.9366 2.71101ZM12.9407 0.481027C11.7344 0.478922 10.5603 0.870381 9.59667 1.59602C8.49271 0.776633 7.12481 0.394208 5.75597 0.522286C4.38714 0.650364 3.11393 1.27991 2.18114 2.28986C1.24835 3.29982 0.721796 4.61892 0.702687 5.9936C0.683579 7.36828 1.17327 8.70151 2.07763 9.73701C2.70363 10.455 6.82663 14.315 8.07763 15.481C8.49055 15.8672 9.0348 16.082 9.60015 16.082C10.1655 16.082 10.7097 15.8672 11.1226 15.481C12.3666 14.316 16.4726 10.466 17.1066 9.74903C17.8179 8.9455 18.2822 7.95367 18.4435 6.89271C18.6048 5.83175 18.4564 4.74677 18.016 3.76814C17.5756 2.7895 16.862 1.95879 15.961 1.37586C15.06 0.792935 14.0098 0.482552 12.9366 0.482003L12.9407 0.481027Z" fill="#33A0FF"/>
</svg>
